<svg width="32" height="32" viewBox="0 0 32 32" xmlns="http://www.w3.org/2000/svg">
    <rect x="11" y="2" width="2" height="2" fill="#B0ACA8"/>
    <rect x="10" y="4" width="2" height="2" fill="#B0ACA8"/>
    <rect x="11" y="6" width="2" height="2" fill="#B0ACA8"/>

    <rect x="16" y="1" width="2" height="2" fill="#B0ACA8"/>
    <rect x="15" y="3" width="2" height="2" fill="#B0ACA8"/>
    <rect x="16" y="5" width="2" height="2" fill="#B0ACA8"/>
    <rect x="15" y="7" width="2" height="2" fill="#B0ACA8"/>

    <rect x="21" y="2" width="2" height="2" fill="#B0ACA8"/>
    <rect x="20" y="4" width="2" height="2" fill="#B0ACA8"/>
    <rect x="21" y="6" width="2" height="2" fill="#B0ACA8"/>

    <rect x="6" y="10" width="20" height="2" fill="#EAD9C9"/> <rect x="5" y="12" width="22" height="9" fill="#EAD9C9"/> <rect x="6" y="21" width="20" height="2" fill="#EAD9C9"/>
    <rect x="7" y="23" width="18" height="2" fill="#EAD9C9"/>
    <rect x="9" y="25" width="14" height="1" fill="#EAD9C9"/>

    <rect x="7" y="24" width="18" height="1" fill="#D4BFA7"/>
    <rect x="9" y="25" width="14" height="1" fill="#D4BFA7"/>

    <rect x="7" y="12" width="18" height="1" fill="#9C8675"/> <rect x="7" y="13" width="18" height="1" fill="#6A5F56"/> <rect x="9" y="12" width="2" height="1" fill="#B0A69D"/>

    <rect x="27" y="13" width="3" height="2" fill="#EAD9C9"/> <rect x="29" y="15" width="2" height="6" fill="#EAD9C9"/> <rect x="27" y="20" width="3" height="2" fill="#EAD9C9"/> <rect x="29" y="15" width="1" height="6" fill="#D4BFA7"/>

    <rect x="6" y="27" width="20" height="3" rx="1" fill="#6A6560"/>
    <rect x="5" y="28" width="22" height="1" fill="#88837F"/>
</svg>
